PathFileType	4	(X/Y/Z)	D:\datacapture\jf2lin\2017-09-14 IITTimeSync\timesync1.trc
DataRate	CameraRate	NumFrames	NumMarkers	Units	OrigDataRate	OrigDataStartFrame	OrigNumFrames
100.00	100.00	      128	3	mm	100.00	2431	      3241
Frame#	Time	M1			M2			M3			
		X1	Y1	Z1	X2	Y2	Z2	X3	Y3	Z3	

2431	24.300										
2432	24.310										
2433	24.320										
2434	24.330										
2435	24.340										
2436	24.350										
2437	24.360										
2438	24.370										
2439	24.380										
2440	24.390										
2441	24.400										
2442	24.410										
2443	24.420										
2444	24.430										
2445	24.440										
2446	24.450										
2447	24.460										
2448	24.470										
2449	24.480										
2450	24.490										
2451	24.500										
2452	24.510										
2453	24.520										
2454	24.530										
2455	24.540										
2456	24.550										
2457	24.560										
2458	24.570										
2459	24.580										
2460	24.590										
2461	24.600										
2462	24.610										
2463	24.620										
2464	24.630										
2465	24.640										
2466	24.650										
2467	24.660										
2468	24.670										
2469	24.680										
2470	24.690										
2471	24.700										
2472	24.710										
2473	24.720										
2474	24.730										
2475	24.740										
2476	24.750										
2477	24.760										
2478	24.770										
2479	24.780										
2480	24.790										
2481	24.800										
2482	24.810										
2483	24.820										
2484	24.830										
2485	24.840										
2486	24.850										
2487	24.860										
2488	24.870										
2489	24.880										
2490	24.890										
2491	24.900										
2492	24.910										
2493	24.920										
2494	24.930										
2495	24.940										
2496	24.950										
2497	24.960										
2498	24.970										
2499	24.980										
2500	24.990										
2501	25.000										
2502	25.010										
2503	25.020										
2504	25.030										
2505	25.040										
2506	25.050										
2507	25.060	25.48203	1393.33899	129.82956	73.83437	1406.98096	137.38782	214.36949	1445.85022	159.93210	
2508	25.070	25.97225	1393.16199	130.20752	73.86491	1406.96521	138.27711	215.88704	1446.21301	158.32489	
2509	25.080	25.85605	1393.64624	131.51852	74.33301	1407.07983	138.52913	217.74744	1446.77136	158.16045	
2510	25.090	25.97150	1393.64893	131.97754	74.29976	1407.23975	138.94023	217.65396	1446.25806	158.52292	
2511	25.100	25.73966	1394.90210	130.77544	74.13131	1406.96558	138.93919	218.00064	1445.94934	159.57976	
2512	25.110	25.78705	1395.07117	132.65083	74.83922	1408.40540	139.06535	218.62474	1445.26978	160.56099	
2513	25.120	25.73694	1397.41162	132.09067	74.51221	1408.59912	139.99323	217.96573	1443.43665	163.48077	
2514	25.130	25.33858	1399.17786	132.04857	74.33939	1410.37854	140.19641	217.60271	1441.65210	165.73807	
2515	25.140	24.74578	1401.53943	132.09187	73.66399	1411.17053	140.35889	218.56560	1440.74536	167.84998	
2516	25.150	24.21925	1403.64880	132.44130	73.42669	1412.15247	140.78181	217.69016	1437.43738	170.87424	
2517	25.160	23.62999	1404.87439	132.67020	73.24887	1412.97510	141.56894	217.73288	1436.36377	171.73888	
2518	25.170	22.42565	1406.01624	134.50012	73.10685	1414.33154	142.13419	217.51218	1434.42285	174.29700	
2519	25.180	22.00941	1407.29150	136.79039	72.72829	1414.87415	143.12453	217.53404	1434.27954	174.36633	
2520	25.190	21.22029	1407.53149	139.01584	72.68897	1414.90381	144.36107	217.75597	1434.51392	174.45865	
2521	25.200	21.04733	1408.30957	141.34999	72.87222	1415.46497	145.99355	217.93208	1434.80273	174.67838	
2522	25.210	21.20794	1408.39331	143.62636	72.36504	1416.17407	147.40445	217.93593	1435.03003	174.74272	
2523	25.220	20.43469	1409.44470	147.20441	70.77715	1415.34009	152.95663	217.67108	1434.76074	175.23964	
2524	25.230	20.43271	1410.09119	150.14629	71.11206	1415.54626	155.51042	217.58360	1433.57947	177.08218	
2525	25.240	20.52796	1409.68347	151.82210	71.74578	1415.76331	156.56078	217.99483	1434.07996	177.88121	
2526	25.250	20.72466	1409.62476	154.57089	72.17096	1416.20703	158.19139	217.49567	1433.57544	180.63663	
2527	25.260	21.20262	1408.54541	156.32074	72.02310	1415.25879	160.97385	218.59846	1435.63062	180.87738	
2528	25.270	21.13447	1406.10742	158.41217	71.88961	1414.06677	164.32011	218.11015	1436.06140	183.58076	
2529	25.280	21.62595	1404.74036	160.92903	72.17014	1412.98083	166.16644	218.82901	1439.25488	185.50148	
2530	25.290	21.36001	1402.78955	163.78745	72.63469	1411.94482	169.18996	218.67197	1438.65784	186.44551	
2531	25.300	22.16900	1401.44873	166.48738	73.22741	1410.71655	171.67873	218.34465	1438.25195	188.69258	
2532	25.310	22.79131	1398.98022	169.29913	73.47160	1408.63855	174.75961	216.43864	1434.37561	193.25456	
2533	25.320	23.09358	1396.14709	173.11258	74.08693	1406.97742	177.83881				
2534	25.330	23.98939	1393.13367	176.95512	74.59089	1403.95190	181.30356	217.54588	1435.29688	196.46925	
2535	25.340	25.34666	1389.51819	181.05257	75.03299	1401.53784	184.84348	217.48073	1434.60864	199.76923	
2536	25.350	26.25842	1385.10205	184.95207	75.54996	1397.79614	188.77394	217.00072	1432.75830	202.25798	
2537	25.360	27.03755	1380.35388	189.42007	76.49704	1394.40491	192.53001	216.08237	1429.87292	206.95654	
2538	25.370	27.98382	1376.32422	193.54796	77.65131	1390.79590	195.89218	220.82976	1434.05090	203.96353	
2539	25.380	29.63227	1371.45728	197.48224	79.04488	1387.02148	199.52629	220.82835	1432.30103	208.10942	
2540	25.390	30.91774	1366.31055	200.93172	79.83226	1383.06152	203.21365	220.01552	1429.51685	211.37749	
2541	25.400	32.33870	1361.15808	205.75072	81.51167	1379.31506	206.95686	219.78262	1426.61145	215.49557	
2542	25.410	33.56869	1359.28528	208.78847	82.62852	1375.86951	210.32971	220.75320	1423.62378	217.56557	
2543	25.420	34.68650	1352.67395	213.31035	83.10770	1371.25122	214.52751	219.20805	1418.23645	223.42896	
2544	25.430	36.86377	1349.34595	216.38498	85.07150	1367.44238	217.63945	223.16713	1419.40417	221.62738	
2545	25.440	37.65274	1342.60864	220.78484	86.30358	1362.20642	221.22066	221.99548	1413.96814	226.45259	
2546	25.450	38.67361	1335.36938	224.84390	86.81932	1355.63806	225.00133				
2547	25.460	40.90934	1330.23328	228.06598	88.51645	1350.46326	227.72066				
2548	25.470	42.21297	1322.72803	230.69624	89.87044	1345.49854	230.25069				
2549	25.480	43.20073	1316.11389	233.99297	91.02322	1339.10535	233.21829				
2550	25.490	44.56760	1310.25159	236.26370	91.58312	1332.00061	237.08737				
2551	25.500	46.05483	1304.12476	238.96944	93.00206	1326.51660	238.48073				
2552	25.510	47.19816	1297.41980	242.78389	94.41104	1320.74121	240.08917				
2553	25.520	48.39894	1290.55811	244.53185	95.00433	1314.40601	243.10654	124.44881	1351.91724	80.90343	
2554	25.530	49.90131	1283.53821	246.38730	95.89350	1307.49902	244.62906	124.19501	1351.47180	81.45938	
2555	25.540	51.21165	1275.87463	248.75211	97.38024	1301.05737	246.19278	124.50980	1351.76306	81.17171	
2556	25.550	53.28798	1268.75061	249.08810	98.80433	1293.64111	246.83084	124.17899	1351.50842	81.42054	
2557	25.560	55.25941	1260.71899	249.62065	100.90667	1286.50720	245.51122	124.37278	1351.25549	81.23244	
2558	25.570	57.93501	1253.17627	250.40570	103.02328	1279.34375	245.50598	124.56294	1351.48755	79.89141	
